<svg width="63" height="63" viewBox="0 0 63 63" fill="none" xmlns="http://www.w3.org/2000/svg">
<path d="M24.1875 6.74561C23.1432 6.74561 22.1417 7.16045 21.4033 7.89887C20.6648 8.6373 20.25 9.63882 20.25 10.6831V20.2501H10.6875C9.64321 20.2501 8.64169 20.6649 7.90327 21.4034C7.16484 22.1418 6.75 23.1433 6.75 24.1876V38.8126C6.75 40.9861 8.514 42.7501 10.6875 42.7501H20.25V52.3149C20.25 54.4906 22.014 56.2524 24.1875 56.2524H38.8125C39.8568 56.2524 40.8583 55.8375 41.5967 55.0991C42.3352 54.3607 42.75 53.3591 42.75 52.3149V42.7501H52.3125C53.3568 42.7501 54.3583 42.3353 55.0967 41.5968C55.8352 40.8584 56.25 39.8569 56.25 38.8126V24.1876C56.25 23.1433 55.8352 22.1418 55.0967 21.4034C54.3583 20.6649 53.3568 20.2501 52.3125 20.2501H42.75V10.6854C42.75 9.64107 42.3352 8.63955 41.5967 7.90112C40.8583 7.1627 39.8568 6.74786 38.8125 6.74786H24.1875V6.74561Z" fill="white"/>
</svg>
